<svg width="14" height="12" viewBox="0 0 14 12" fill="none" xmlns="http://www.w3.org/2000/svg">
<path fill-rule="evenodd" clip-rule="evenodd" d="M0.531982 0H4.4175L5.75432 2.13593C4.58733 2.39508 3.55662 3.01088 2.78521 3.86161L0.531982 0ZM11.214 3.86288L13.468 0H9.58245L8.2454 2.1363C9.41228 2.3958 10.4428 3.0119 11.214 3.86288ZM11.4464 7.59999C11.4464 10.0301 9.45544 12.0001 6.99953 12.0001C4.54361 12.0001 2.5527 10.0301 2.5527 7.59999C2.5527 5.1699 4.54361 3.19991 6.99953 3.19991C9.45544 3.19991 11.4464 5.1699 11.4464 7.59999ZM3.79175 7.59999C3.79175 9.35297 5.22792 10.774 6.99953 10.774C8.77114 10.774 10.2073 9.35297 10.2073 7.59999C10.2073 5.84701 8.77114 4.42593 6.99953 4.42593C5.22792 4.42593 3.79175 5.84701 3.79175 7.59999ZM7.66573 6.13674C7.46278 5.48435 6.53941 5.48435 6.33645 6.13674C6.24592 6.42776 5.97418 6.62603 5.66941 6.62603C4.98639 6.62603 4.68445 7.49385 5.22855 7.90673L5.27751 7.94388C5.51873 8.12693 5.61949 8.44145 5.52954 8.73059L5.50404 8.81254C5.30409 9.45528 6.04666 9.97608 6.58287 9.56918C6.83012 9.38156 7.17206 9.38156 7.41931 9.56918C7.95552 9.97608 8.69809 9.45528 8.49814 8.81254L8.47265 8.73059C8.3827 8.44145 8.48346 8.12693 8.72468 7.94388L8.77364 7.90673C9.31773 7.49385 9.01579 6.62603 8.33277 6.62603C8.028 6.62603 7.75626 6.42776 7.66573 6.13674Z" fill="#F8C945"/>
</svg>
